<svg id="svg" xmlns="http://www.w3.org/2000/svg" xmlns:xlink="http://www.w3.org/1999/xlink" width="400" height="100.44576523031203" viewBox="0, 0, 400,100.44576523031203"><g id="svgg"><path id="path0" d="M53.046 8.283 C 46.355 10.019,39.612 12.833,39.129 14.092 C 39.033 14.342,37.745 16.225,36.268 18.276 L 33.581 22.004 33.581 44.386 L 33.581 66.768 26.741 76.252 C 22.980 81.468,19.812 85.736,19.703 85.736 C 19.594 85.736,19.112 84.766,18.633 83.581 C 18.154 82.396,17.653 81.426,17.520 81.426 C 17.181 81.426,7.343 93.921,7.532 94.110 C 7.651 94.228,14.176 89.802,16.253 88.195 C 16.501 88.003,16.937 88.417,17.707 89.577 C 19.078 91.643,17.835 91.843,29.606 87.667 C 41.404 83.482,39.669 83.722,43.670 85.728 C 46.420 87.107,47.913 87.605,53.462 88.997 L 60.010 90.639 203.418 90.639 L 346.825 90.639 353.358 89.001 C 359.753 87.397,367.905 84.087,367.905 83.093 C 367.905 82.811,370.135 79.734,370.727 79.198 C 370.908 79.034,371.550 78.276,372.155 77.513 L 373.254 76.126 373.254 49.043 L 373.254 21.959 371.663 19.808 C 370.788 18.625,369.916 17.366,369.726 17.010 C 369.536 16.655,369.052 16.010,368.652 15.578 C 368.252 15.146,367.842 14.536,367.743 14.222 C 367.305 12.844,360.411 9.945,353.372 8.179 L 346.825 6.538 203.205 6.563 L 59.584 6.587 53.046 8.283 M369.688 81.575 C 369.304 81.984,369.114 82.314,369.265 82.309 C 369.519 82.300,370.743 80.832,370.497 80.832 C 370.436 80.832,370.072 81.166,369.688 81.575 " stroke="none" fill="#000000" fill-rule="evenodd"></path></g></svg>