<svg id="svg" version="1.1" xmlns="http://www.w3.org/2000/svg" xmlns:xlink="http://www.w3.org/1999/xlink" width="400" height="123.15112540192926" viewBox="0, 0, 400,123.15112540192926"><g id="svgg"><path id="path0" d="M10.988 3.132 L 9.893 3.181 6.488 6.549 L 3.083 9.917 3.083 61.500 L 3.083 113.083 6.495 116.458 L 9.907 119.833 10.954 119.844 C 12.322 119.858,387.677 119.858,389.051 119.844 L 390.103 119.833 393.510 116.458 L 396.917 113.083 396.917 61.500 L 396.917 9.917 393.510 6.542 L 390.103 3.167 389.093 3.156 C 385.367 3.117,11.860 3.093,10.988 3.132 " stroke="none" fill="#9c0404" fill-rule="evenodd"></path><path id="path1" d="M7.296 0.585 C 6.996 0.906,6.505 1.412,6.206 1.710 C 5.501 2.409,2.409 5.501,1.710 6.206 C 1.412 6.505,0.906 6.996,0.585 7.296 L 0.000 7.843 0.000 13.991 C 0.000 20.461,0.016 20.667,0.518 20.667 C 0.691 20.667,0.833 20.742,0.833 20.833 C 0.833 20.925,0.967 21.000,1.130 21.000 C 1.293 21.000,1.535 21.150,1.667 21.333 C 1.799 21.517,2.003 21.667,2.120 21.667 C 2.237 21.667,2.333 21.742,2.333 21.833 C 2.333 21.925,2.521 22.000,2.750 22.000 L 3.167 22.000 3.167 15.921 L 3.167 9.842 6.537 6.504 L 9.907 3.167 10.954 3.167 C 11.773 3.167,12.000 3.112,12.000 2.917 C 12.000 2.779,11.925 2.667,11.833 2.667 C 11.742 2.667,11.667 2.586,11.667 2.488 C 11.667 2.390,11.554 2.197,11.417 2.060 C 11.279 1.922,11.167 1.665,11.167 1.488 C 11.167 1.311,11.092 1.167,11.000 1.167 C 10.908 1.167,10.833 1.044,10.833 0.895 C 10.833 -0.176,8.221 -0.405,7.296 0.585 M25.262 0.262 C 25.118 0.406,25.000 0.668,25.000 0.845 C 25.000 1.022,24.925 1.167,24.833 1.167 C 24.742 1.167,24.667 1.300,24.667 1.463 C 24.667 1.626,24.517 1.868,24.333 2.000 C 24.150 2.132,24.000 2.336,24.000 2.453 C 24.000 2.571,23.925 2.667,23.833 2.667 C 23.742 2.667,23.667 2.779,23.667 2.917 C 23.667 3.173,38.125 3.319,38.379 3.065 C 38.505 2.940,38.182 2.346,37.792 1.982 C 37.631 1.833,37.500 1.588,37.500 1.439 C 37.500 1.289,37.425 1.167,37.333 1.167 C 37.242 1.167,37.167 1.044,37.167 0.895 C 37.167 0.745,37.005 0.482,36.808 0.311 C 36.301 -0.128,25.697 -0.173,25.262 0.262 M51.692 0.311 C 51.495 0.482,51.333 0.745,51.333 0.895 C 51.333 1.044,51.258 1.167,51.167 1.167 C 51.075 1.167,51.000 1.300,51.000 1.463 C 51.000 1.626,50.850 1.868,50.667 2.000 C 50.483 2.132,50.333 2.336,50.333 2.453 C 50.333 2.571,50.258 2.667,50.167 2.667 C 50.075 2.667,50.000 2.779,50.000 2.917 C 50.000 3.135,50.935 3.167,57.417 3.167 C 63.898 3.167,64.833 3.135,64.833 2.917 C 64.833 2.779,64.758 2.667,64.667 2.667 C 64.575 2.667,64.500 2.571,64.500 2.453 C 64.500 2.336,64.350 2.132,64.167 2.000 C 63.983 1.868,63.833 1.626,63.833 1.463 C 63.833 1.300,63.758 1.167,63.667 1.167 C 63.575 1.167,63.500 1.044,63.500 0.895 C 63.500 0.745,63.339 0.482,63.141 0.311 C 62.588 -0.168,52.245 -0.168,51.692 0.311 M78.026 0.311 C 77.828 0.482,77.667 0.745,77.667 0.895 C 77.667 1.044,77.592 1.167,77.500 1.167 C 77.408 1.167,77.333 1.300,77.333 1.463 C 77.333 1.626,77.183 1.868,77.000 2.000 C 76.817 2.132,76.667 2.336,76.667 2.453 C 76.667 2.571,76.592 2.667,76.500 2.667 C 76.408 2.667,76.333 2.779,76.333 2.917 C 76.333 3.250,101.564 3.302,101.770 2.968 C 101.837 2.859,101.804 2.740,101.696 2.704 C 101.588 2.668,101.500 2.549,101.500 2.440 C 101.500 2.330,101.350 2.132,101.167 2.000 C 100.983 1.868,100.833 1.626,100.833 1.463 C 100.833 1.300,100.758 1.167,100.667 1.167 C 100.575 1.167,100.500 1.044,100.500 0.895 C 100.500 0.745,100.339 0.482,100.141 0.311 C 99.583 -0.173,78.584 -0.173,78.026 0.311 M115.026 0.311 C 114.828 0.482,114.667 0.745,114.667 0.895 C 114.667 1.044,114.592 1.167,114.500 1.167 C 114.408 1.167,114.333 1.300,114.333 1.463 C 114.333 1.626,114.183 1.868,114.000 2.000 C 113.817 2.132,113.667 2.336,113.667 2.453 C 113.667 2.571,113.592 2.667,113.500 2.667 C 113.408 2.667,113.333 2.779,113.333 2.917 C 113.333 3.138,118.213 3.167,156.250 3.167 C 194.287 3.167,199.167 3.138,199.167 2.917 C 199.167 2.778,199.019 2.667,198.833 2.667 C 198.650 2.667,198.500 2.597,198.500 2.512 C 198.500 2.426,198.331 2.333,198.125 2.303 C 197.884 2.269,197.731 2.116,197.697 1.875 C 197.667 1.669,197.574 1.500,197.488 1.500 C 197.403 1.500,197.333 1.350,197.333 1.167 C 197.333 0.983,197.258 0.833,197.167 0.833 C 197.075 0.833,197.000 0.646,197.000 0.417 L 197.000 0.000 156.192 0.000 C 116.590 0.000,115.374 0.009,115.026 0.311 M203.000 0.417 C 203.000 0.646,202.925 0.833,202.833 0.833 C 202.742 0.833,202.667 0.983,202.667 1.167 C 202.667 1.350,202.597 1.500,202.512 1.500 C 202.426 1.500,202.333 1.669,202.303 1.875 C 202.269 2.116,202.116 2.269,201.875 2.303 C 201.669 2.333,201.500 2.426,201.500 2.512 C 201.500 2.597,201.350 2.667,201.167 2.667 C 200.981 2.667,200.833 2.778,200.833 2.917 C 200.833 3.138,205.713 3.167,243.750 3.167 C 281.787 3.167,286.667 3.138,286.667 2.917 C 286.667 2.779,286.592 2.667,286.500 2.667 C 286.408 2.667,286.333 2.571,286.333 2.453 C 286.333 2.336,286.183 2.132,286.000 2.000 C 285.817 1.868,285.667 1.626,285.667 1.463 C 285.667 1.300,285.592 1.167,285.500 1.167 C 285.408 1.167,285.333 1.044,285.333 0.895 C 285.333 -0.072,288.687 0.000,243.808 0.000 L 203.000 0.000 203.000 0.417 M299.859 0.311 C 299.661 0.482,299.500 0.745,299.500 0.895 C 299.500 1.044,299.425 1.167,299.333 1.167 C 299.242 1.167,299.167 1.300,299.167 1.463 C 299.167 1.626,299.017 1.868,298.833 2.000 C 298.650 2.132,298.500 2.330,298.500 2.440 C 298.500 2.549,298.412 2.668,298.304 2.704 C 298.196 2.740,298.163 2.859,298.230 2.968 C 298.436 3.302,323.667 3.250,323.667 2.917 C 323.667 2.779,323.592 2.667,323.500 2.667 C 323.408 2.667,323.333 2.571,323.333 2.453 C 323.333 2.336,323.183 2.132,323.000 2.000 C 322.817 1.868,322.667 1.626,322.667 1.463 C 322.667 1.300,322.592 1.167,322.500 1.167 C 322.408 1.167,322.333 1.044,322.333 0.895 C 322.333 0.745,322.172 0.482,321.974 0.311 C 321.416 -0.173,300.417 -0.173,299.859 0.311 M336.859 0.311 C 336.661 0.482,336.500 0.745,336.500 0.895 C 336.500 1.044,336.425 1.167,336.333 1.167 C 336.242 1.167,336.167 1.300,336.167 1.463 C 336.167 1.626,336.017 1.868,335.833 2.000 C 335.650 2.132,335.500 2.336,335.500 2.453 C 335.500 2.571,335.425 2.667,335.333 2.667 C 335.242 2.667,335.167 2.779,335.167 2.917 C 335.167 3.135,336.102 3.167,342.583 3.167 C 349.065 3.167,350.000 3.135,350.000 2.917 C 350.000 2.779,349.925 2.667,349.833 2.667 C 349.742 2.667,349.667 2.571,349.667 2.453 C 349.667 2.336,349.517 2.132,349.333 2.000 C 349.150 1.868,349.000 1.626,349.000 1.463 C 349.000 1.300,348.925 1.167,348.833 1.167 C 348.742 1.167,348.667 1.044,348.667 0.895 C 348.667 0.745,348.505 0.482,348.308 0.311 C 347.755 -0.168,337.412 -0.168,336.859 0.311 M363.192 0.311 C 362.995 0.482,362.833 0.745,362.833 0.895 C 362.833 1.044,362.758 1.167,362.667 1.167 C 362.575 1.167,362.500 1.289,362.500 1.439 C 362.500 1.588,362.369 1.833,362.208 1.982 C 361.818 2.346,361.495 2.940,361.621 3.065 C 361.875 3.319,376.333 3.173,376.333 2.917 C 376.333 2.779,376.258 2.667,376.167 2.667 C 376.075 2.667,376.000 2.571,376.000 2.453 C 376.000 2.336,375.850 2.132,375.667 2.000 C 375.483 1.868,375.333 1.626,375.333 1.463 C 375.333 1.300,375.258 1.167,375.167 1.167 C 375.075 1.167,375.000 1.022,375.000 0.845 C 375.000 0.019,374.867 0.000,369.014 0.000 C 363.920 0.000,363.527 0.021,363.192 0.311 M389.526 0.311 C 389.328 0.482,389.167 0.745,389.167 0.895 C 389.167 1.044,389.092 1.167,389.000 1.167 C 388.908 1.167,388.833 1.311,388.833 1.488 C 388.833 1.665,388.721 1.922,388.583 2.060 C 388.446 2.197,388.333 2.390,388.333 2.488 C 388.333 2.586,388.258 2.667,388.167 2.667 C 388.075 2.667,388.000 2.779,388.000 2.917 C 388.000 3.112,388.228 3.167,389.051 3.167 L 390.103 3.167 393.468 6.505 L 396.833 9.844 396.833 15.922 L 396.833 22.000 397.250 22.000 C 397.479 22.000,397.667 21.925,397.667 21.833 C 397.667 21.742,397.763 21.667,397.880 21.667 C 397.997 21.667,398.201 21.517,398.333 21.333 C 398.465 21.150,398.707 21.000,398.870 21.000 C 399.033 21.000,399.167 20.925,399.167 20.833 C 399.167 20.742,399.309 20.667,399.482 20.667 C 399.984 20.667,400.000 20.461,400.000 13.991 L 400.000 7.843 399.415 7.296 C 399.094 6.996,398.588 6.505,398.290 6.206 C 397.591 5.501,394.499 2.409,393.794 1.710 C 393.495 1.412,393.004 0.906,392.704 0.585 C 392.035 -0.130,390.215 -0.287,389.526 0.311 M2.333 102.833 C 2.333 102.925,2.230 103.000,2.104 103.000 C 1.977 103.000,1.781 103.112,1.667 103.250 C 1.553 103.388,1.318 103.500,1.146 103.500 C 0.974 103.500,0.833 103.575,0.833 103.667 C 0.833 103.758,0.691 103.833,0.518 103.833 C 0.020 103.833,-0.000 104.057,0.000 109.759 L 0.000 115.157 0.585 115.704 C 0.906 116.004,1.412 116.495,1.710 116.794 C 2.409 117.499,5.501 120.591,6.206 121.290 C 6.505 121.588,6.996 122.094,7.296 122.415 C 8.221 123.405,10.833 123.176,10.833 122.105 C 10.833 121.956,10.908 121.833,11.000 121.833 C 11.092 121.833,11.167 121.689,11.167 121.512 C 11.167 121.335,11.279 121.078,11.417 120.940 C 11.554 120.803,11.667 120.610,11.667 120.512 C 11.667 120.414,11.742 120.333,11.833 120.333 C 11.925 120.333,12.000 120.221,12.000 120.083 C 12.000 119.888,11.773 119.833,10.954 119.833 L 9.907 119.833 6.537 116.496 L 3.167 113.158 3.167 107.912 L 3.167 102.667 2.750 102.667 C 2.521 102.667,2.333 102.742,2.333 102.833 M396.833 107.912 L 396.833 113.156 393.468 116.495 L 390.103 119.833 389.051 119.833 C 388.228 119.833,388.000 119.888,388.000 120.083 C 388.000 120.221,388.075 120.333,388.167 120.333 C 388.258 120.333,388.333 120.414,388.333 120.512 C 388.333 120.610,388.446 120.803,388.583 120.940 C 388.721 121.078,388.833 121.335,388.833 121.512 C 388.833 121.689,388.908 121.833,389.000 121.833 C 389.092 121.833,389.167 121.956,389.167 122.105 C 389.167 123.176,391.779 123.405,392.704 122.415 C 393.004 122.094,393.495 121.588,393.794 121.290 C 394.499 120.591,397.591 117.499,398.290 116.794 C 398.588 116.495,399.094 116.004,399.415 115.704 L 400.000 115.157 400.000 109.759 C 400.000 104.057,399.980 103.833,399.482 103.833 C 399.309 103.833,399.167 103.758,399.167 103.667 C 399.167 103.575,399.026 103.500,398.854 103.500 C 398.682 103.500,398.447 103.388,398.333 103.250 C 398.219 103.112,398.023 103.000,397.896 103.000 C 397.770 103.000,397.667 102.925,397.667 102.833 C 397.667 102.742,397.479 102.667,397.250 102.667 L 396.833 102.667 396.833 107.912 M23.667 120.083 C 23.667 120.221,23.742 120.333,23.833 120.333 C 23.925 120.333,24.000 120.429,24.000 120.547 C 24.000 120.664,24.150 120.868,24.333 121.000 C 24.517 121.132,24.667 121.374,24.667 121.537 C 24.667 121.700,24.742 121.833,24.833 121.833 C 24.925 121.833,25.000 121.978,25.000 122.155 C 25.000 123.025,24.671 123.000,36.333 123.000 C 47.995 123.000,47.667 123.025,47.667 122.155 C 47.667 121.978,47.742 121.833,47.833 121.833 C 47.925 121.833,48.000 121.700,48.000 121.537 C 48.000 121.374,48.150 121.132,48.333 121.000 C 48.517 120.868,48.667 120.664,48.667 120.547 C 48.667 120.429,48.742 120.333,48.833 120.333 C 48.925 120.333,49.000 120.221,49.000 120.083 C 49.000 119.863,47.481 119.833,36.333 119.833 C 25.185 119.833,23.667 119.863,23.667 120.083 M60.667 120.083 C 60.667 120.221,60.742 120.333,60.833 120.333 C 60.925 120.333,61.000 120.414,61.000 120.512 C 61.000 120.610,61.112 120.803,61.250 120.940 C 61.387 121.078,61.500 121.335,61.500 121.512 C 61.500 121.689,61.575 121.833,61.667 121.833 C 61.758 121.833,61.833 121.956,61.833 122.105 C 61.833 122.953,62.156 123.000,68.000 123.000 C 73.844 123.000,74.167 122.953,74.167 122.105 C 74.167 121.956,74.242 121.833,74.333 121.833 C 74.425 121.833,74.500 121.683,74.500 121.500 C 74.500 121.317,74.574 121.167,74.663 121.167 C 74.753 121.167,74.874 120.979,74.932 120.750 C 74.989 120.521,75.103 120.333,75.185 120.333 C 75.266 120.333,75.333 120.221,75.333 120.083 C 75.333 119.865,74.407 119.833,68.000 119.833 C 61.593 119.833,60.667 119.865,60.667 120.083 M87.000 120.083 C 87.000 120.221,87.075 120.333,87.167 120.333 C 87.258 120.333,87.333 120.429,87.333 120.547 C 87.333 120.664,87.483 120.868,87.667 121.000 C 87.850 121.132,88.000 121.374,88.000 121.537 C 88.000 121.700,88.075 121.833,88.167 121.833 C 88.258 121.833,88.333 121.945,88.333 122.081 C 88.333 122.977,88.487 123.000,94.345 123.000 C 100.176 123.000,100.500 122.953,100.500 122.105 C 100.500 121.956,100.575 121.833,100.667 121.833 C 100.758 121.833,100.833 121.700,100.833 121.537 C 100.833 121.374,100.983 121.132,101.167 121.000 C 101.350 120.868,101.500 120.670,101.500 120.560 C 101.500 120.451,101.588 120.332,101.696 120.296 C 101.804 120.260,101.837 120.141,101.770 120.032 C 101.564 119.700,87.000 119.751,87.000 120.083 M113.333 120.083 C 113.333 120.221,113.408 120.333,113.500 120.333 C 113.592 120.333,113.667 120.429,113.667 120.547 C 113.667 120.664,113.817 120.868,114.000 121.000 C 114.183 121.132,114.333 121.374,114.333 121.537 C 114.333 121.700,114.408 121.833,114.500 121.833 C 114.592 121.833,114.667 121.956,114.667 122.105 C 114.667 123.072,111.313 123.000,156.192 123.000 L 197.000 123.000 197.000 122.583 C 197.000 122.354,197.075 122.167,197.167 122.167 C 197.258 122.167,197.333 122.017,197.333 121.833 C 197.333 121.650,197.403 121.500,197.488 121.500 C 197.574 121.500,197.667 121.331,197.697 121.125 C 197.731 120.884,197.884 120.731,198.125 120.697 C 198.331 120.667,198.500 120.574,198.500 120.488 C 198.500 120.403,198.650 120.333,198.833 120.333 C 199.019 120.333,199.167 120.222,199.167 120.083 C 199.167 119.862,194.287 119.833,156.250 119.833 C 118.213 119.833,113.333 119.862,113.333 120.083 M200.833 120.083 C 200.833 120.222,200.981 120.333,201.167 120.333 C 201.350 120.333,201.500 120.403,201.500 120.488 C 201.500 120.574,201.669 120.667,201.875 120.697 C 202.116 120.731,202.269 120.884,202.303 121.125 C 202.333 121.331,202.426 121.500,202.512 121.500 C 202.597 121.500,202.667 121.650,202.667 121.833 C 202.667 122.017,202.742 122.167,202.833 122.167 C 202.925 122.167,203.000 122.354,203.000 122.583 L 203.000 123.000 243.808 123.000 C 288.687 123.000,285.333 123.072,285.333 122.105 C 285.333 121.956,285.408 121.833,285.500 121.833 C 285.592 121.833,285.667 121.700,285.667 121.537 C 285.667 121.374,285.817 121.132,286.000 121.000 C 286.183 120.868,286.333 120.664,286.333 120.547 C 286.333 120.429,286.408 120.333,286.500 120.333 C 286.592 120.333,286.667 120.221,286.667 120.083 C 286.667 119.862,281.787 119.833,243.750 119.833 C 205.713 119.833,200.833 119.862,200.833 120.083 M298.230 120.032 C 298.163 120.141,298.196 120.260,298.304 120.296 C 298.412 120.332,298.500 120.451,298.500 120.560 C 298.500 120.670,298.650 120.868,298.833 121.000 C 299.017 121.132,299.167 121.374,299.167 121.537 C 299.167 121.700,299.242 121.833,299.333 121.833 C 299.425 121.833,299.500 121.956,299.500 122.105 C 299.500 122.953,299.824 123.000,305.655 123.000 C 311.513 123.000,311.667 122.977,311.667 122.081 C 311.667 121.945,311.742 121.833,311.833 121.833 C 311.925 121.833,312.000 121.700,312.000 121.537 C 312.000 121.374,312.150 121.132,312.333 121.000 C 312.517 120.868,312.667 120.664,312.667 120.547 C 312.667 120.429,312.742 120.333,312.833 120.333 C 312.925 120.333,313.000 120.221,313.000 120.083 C 313.000 119.751,298.436 119.700,298.230 120.032 M324.667 120.083 C 324.667 120.221,324.734 120.333,324.815 120.333 C 324.897 120.333,325.011 120.521,325.068 120.750 C 325.126 120.979,325.247 121.167,325.337 121.167 C 325.426 121.167,325.500 121.317,325.500 121.500 C 325.500 121.683,325.575 121.833,325.667 121.833 C 325.758 121.833,325.833 121.956,325.833 122.105 C 325.833 122.953,326.156 123.000,332.000 123.000 C 337.844 123.000,338.167 122.953,338.167 122.105 C 338.167 121.956,338.242 121.833,338.333 121.833 C 338.425 121.833,338.500 121.689,338.500 121.512 C 338.500 121.335,338.612 121.078,338.750 120.940 C 338.887 120.803,339.000 120.610,339.000 120.512 C 339.000 120.414,339.075 120.333,339.167 120.333 C 339.258 120.333,339.333 120.221,339.333 120.083 C 339.333 119.865,338.407 119.833,332.000 119.833 C 325.593 119.833,324.667 119.865,324.667 120.083 M351.000 120.083 C 351.000 120.221,351.075 120.333,351.167 120.333 C 351.258 120.333,351.333 120.429,351.333 120.547 C 351.333 120.664,351.483 120.868,351.667 121.000 C 351.850 121.132,352.000 121.374,352.000 121.537 C 352.000 121.700,352.075 121.833,352.167 121.833 C 352.258 121.833,352.333 121.978,352.333 122.155 C 352.333 123.025,352.005 123.000,363.667 123.000 C 375.329 123.000,375.000 123.025,375.000 122.155 C 375.000 121.978,375.075 121.833,375.167 121.833 C 375.258 121.833,375.333 121.700,375.333 121.537 C 375.333 121.374,375.483 121.132,375.667 121.000 C 375.850 120.868,376.000 120.664,376.000 120.547 C 376.000 120.429,376.075 120.333,376.167 120.333 C 376.258 120.333,376.333 120.221,376.333 120.083 C 376.333 119.863,374.815 119.833,363.667 119.833 C 352.519 119.833,351.000 119.863,351.000 120.083 " stroke="none" fill="#2c2c2c" fill-rule="evenodd"></path></g></svg>