<svg id="svg" xmlns="http://www.w3.org/2000/svg" xmlns:xlink="http://www.w3.org/1999/xlink" width="400" height="123.15112540192926" viewBox="0, 0, 400,123.15112540192926"><g id="svgg"><path id="path0" d="M6.167 3.069 C 5.551 5.164,5.301 5.586,4.335 6.156 C 2.964 6.965,2.941 7.237,4.191 7.883 C 5.477 8.548,5.256 8.791,2.746 9.470 C 0.124 10.180,0.123 10.375,2.737 11.082 C 5.237 11.759,5.480 12.029,4.191 12.696 C 2.963 13.330,2.963 13.679,4.191 14.314 C 5.477 14.979,5.256 15.221,2.746 15.901 C 0.124 16.611,0.123 16.806,2.737 17.513 C 5.237 18.190,5.480 18.460,4.191 19.126 C 2.963 19.761,2.963 20.110,4.191 20.745 C 5.477 21.410,5.256 21.652,2.746 22.332 C 0.124 23.042,0.123 23.236,2.737 23.944 C 5.237 24.621,5.480 24.890,4.191 25.557 C 2.963 26.192,2.963 26.541,4.191 27.176 C 5.477 27.841,5.256 28.083,2.746 28.763 C 0.124 29.472,0.123 29.667,2.737 30.375 C 5.237 31.052,5.480 31.321,4.191 31.988 C 2.963 32.623,2.963 32.972,4.191 33.607 C 5.477 34.272,5.256 34.514,2.746 35.194 C 0.124 35.903,0.123 36.098,2.737 36.806 C 5.237 37.483,5.480 37.752,4.191 38.419 C 2.963 39.054,2.963 39.403,4.191 40.038 C 5.477 40.703,5.256 40.945,2.746 41.624 C 0.124 42.334,0.123 42.529,2.737 43.237 C 5.237 43.913,5.480 44.183,4.191 44.850 C 2.963 45.485,2.963 45.834,4.191 46.468 C 5.477 47.134,5.256 47.376,2.746 48.055 C 0.124 48.765,0.123 48.960,2.737 49.667 C 5.237 50.344,5.480 50.614,4.191 51.281 C 2.963 51.916,2.963 52.264,4.191 52.899 C 5.477 53.564,5.256 53.807,2.746 54.486 C 0.124 55.196,0.123 55.391,2.737 56.098 C 5.237 56.775,5.480 57.045,4.191 57.712 C 2.963 58.347,2.963 58.695,4.191 59.330 C 5.477 59.995,5.256 60.238,2.746 60.917 C 0.124 61.627,0.123 61.822,2.737 62.529 C 5.237 63.206,5.480 63.476,4.191 64.142 C 2.963 64.777,2.963 65.126,4.191 65.761 C 5.477 66.426,5.256 66.668,2.746 67.348 C 0.124 68.058,0.123 68.252,2.737 68.960 C 5.237 69.637,5.480 69.906,4.191 70.573 C 2.963 71.208,2.963 71.557,4.191 72.192 C 5.477 72.857,5.256 73.099,2.746 73.779 C 0.124 74.488,0.123 74.683,2.737 75.391 C 5.237 76.068,5.480 76.337,4.191 77.004 C 2.963 77.639,2.963 77.988,4.191 78.623 C 5.477 79.288,5.256 79.530,2.746 80.210 C 0.124 80.919,0.123 81.114,2.737 81.822 C 5.237 82.499,5.480 82.768,4.191 83.435 C 2.963 84.070,2.963 84.419,4.191 85.054 C 5.477 85.719,5.256 85.961,2.746 86.641 C 0.124 87.350,0.123 87.545,2.737 88.253 C 5.237 88.929,5.480 89.199,4.191 89.866 C 2.963 90.501,2.963 90.850,4.191 91.485 C 5.477 92.150,5.256 92.392,2.746 93.071 C 0.124 93.781,0.123 93.976,2.737 94.684 C 5.237 95.360,5.480 95.630,4.191 96.297 C 2.963 96.932,2.963 97.280,4.191 97.915 C 5.477 98.580,5.256 98.823,2.746 99.502 C 0.124 100.212,0.123 100.407,2.737 101.114 C 5.237 101.791,5.480 102.061,4.191 102.728 C 2.963 103.363,2.963 103.711,4.191 104.346 C 5.477 105.011,5.256 105.254,2.746 105.933 C 0.124 106.643,0.123 106.838,2.737 107.545 C 5.237 108.222,5.480 108.492,4.191 109.159 C 2.963 109.793,2.963 110.142,4.191 110.777 C 5.477 111.442,5.256 111.684,2.746 112.364 C 0.124 113.074,0.123 113.269,2.737 113.976 C 5.245 114.655,5.481 114.922,4.170 115.600 C 2.984 116.213,3.025 116.446,4.492 117.430 C 5.409 118.046,5.717 118.563,6.226 120.344 C 6.993 123.026,7.158 123.033,7.867 120.414 C 8.544 117.914,8.813 117.671,9.480 118.961 C 9.757 119.497,10.122 119.936,10.289 119.936 C 10.457 119.936,10.821 119.497,11.099 118.961 C 11.764 117.674,12.006 117.895,12.686 120.405 C 13.395 123.027,13.590 123.028,14.298 120.414 C 14.974 117.914,15.244 117.671,15.911 118.961 C 16.546 120.188,16.895 120.188,17.530 118.961 C 18.195 117.674,18.437 117.895,19.116 120.405 C 19.826 123.027,20.021 123.028,20.729 120.414 C 21.405 117.914,21.675 117.671,22.342 118.961 C 22.977 120.188,23.326 120.188,23.960 118.961 C 24.625 117.674,24.868 117.895,25.547 120.405 C 26.257 123.027,26.452 123.028,27.159 120.414 C 27.836 117.914,28.106 117.671,28.773 118.961 C 29.050 119.497,29.414 119.936,29.582 119.936 C 29.750 119.936,30.114 119.497,30.391 118.961 C 31.056 117.674,31.299 117.895,31.978 120.405 C 32.688 123.027,32.883 123.028,33.590 120.414 C 34.267 117.914,34.537 117.671,35.204 118.961 C 35.838 120.188,36.187 120.188,36.822 118.961 C 37.487 117.674,37.729 117.895,38.409 120.405 C 39.119 123.027,39.314 123.028,40.021 120.414 C 40.698 117.914,40.968 117.671,41.634 118.961 C 42.269 120.188,42.618 120.188,43.253 118.961 C 43.918 117.674,44.160 117.895,44.840 120.405 C 45.550 123.027,45.744 123.028,46.452 120.414 C 47.129 117.914,47.398 117.671,48.065 118.961 C 48.343 119.497,48.707 119.936,48.875 119.936 C 49.042 119.936,49.407 119.497,49.684 118.961 C 50.349 117.674,50.591 117.895,51.271 120.405 C 51.980 123.027,52.175 123.028,52.883 120.414 C 53.560 117.914,53.829 117.671,54.496 118.961 C 54.774 119.497,55.138 119.936,55.305 119.936 C 55.473 119.936,55.837 119.497,56.115 118.961 C 56.780 117.674,57.022 117.895,57.702 120.405 C 58.411 123.027,58.606 123.028,59.314 120.414 C 59.991 117.914,60.260 117.671,60.927 118.961 C 61.204 119.497,61.569 119.936,61.736 119.936 C 61.904 119.936,62.268 119.497,62.546 118.961 C 63.211 117.674,63.453 117.895,64.132 120.405 C 64.842 123.027,65.037 123.028,65.745 120.414 C 66.421 117.914,66.691 117.671,67.358 118.961 C 67.993 120.188,68.342 120.188,68.976 118.961 C 69.642 117.674,69.884 117.895,70.563 120.405 C 71.273 123.027,71.468 123.028,72.175 120.414 C 72.852 117.914,73.122 117.671,73.789 118.961 C 74.066 119.497,74.430 119.936,74.598 119.936 C 74.766 119.936,75.130 119.497,75.407 118.961 C 76.072 117.674,76.315 117.895,76.994 120.405 C 77.704 123.027,77.899 123.028,78.606 120.414 C 79.283 117.914,79.553 117.671,80.220 118.961 C 80.497 119.497,80.861 119.936,81.029 119.936 C 81.197 119.936,81.561 119.497,81.838 118.961 C 82.503 117.674,82.746 117.895,83.425 120.405 C 84.135 123.027,84.330 123.028,85.037 120.414 C 85.714 117.914,85.984 117.671,86.651 118.961 C 87.285 120.188,87.634 120.188,88.269 118.961 C 88.934 117.674,89.176 117.895,89.856 120.405 C 90.566 123.027,90.761 123.028,91.468 120.414 C 92.145 117.914,92.415 117.671,93.081 118.961 C 93.359 119.497,93.723 119.936,93.891 119.936 C 94.058 119.936,94.423 119.497,94.700 118.961 C 95.365 117.674,95.607 117.895,96.287 120.405 C 96.997 123.027,97.191 123.028,97.899 120.414 C 98.576 117.914,98.845 117.671,99.512 118.961 C 99.790 119.497,100.154 119.936,100.322 119.936 C 100.489 119.936,100.853 119.497,101.131 118.961 C 101.796 117.674,102.038 117.895,102.718 120.405 C 103.427 123.027,103.622 123.028,104.330 120.414 C 105.007 117.914,105.276 117.671,105.943 118.961 C 106.220 119.497,106.585 119.936,106.752 119.936 C 106.920 119.936,107.284 119.497,107.562 118.961 C 108.227 117.674,108.469 117.895,109.149 120.405 C 109.858 123.027,110.053 123.028,110.761 120.414 C 111.438 117.914,111.707 117.671,112.374 118.961 C 112.651 119.497,113.016 119.936,113.183 119.936 C 113.351 119.936,113.715 119.497,113.993 118.961 C 114.658 117.674,114.900 117.895,115.579 120.405 C 116.289 123.027,116.484 123.028,117.192 120.414 C 117.868 117.914,118.138 117.671,118.805 118.961 C 119.440 120.188,119.789 120.188,120.423 118.961 C 121.088 117.674,121.331 117.895,122.010 120.405 C 122.720 123.027,122.915 123.028,123.622 120.414 C 124.299 117.914,124.569 117.671,125.236 118.961 C 125.513 119.497,125.877 119.936,126.045 119.936 C 126.213 119.936,126.577 119.497,126.854 118.961 C 127.519 117.674,127.762 117.895,128.441 120.405 C 129.151 123.027,129.346 123.028,130.053 120.414 C 130.730 117.914,131.000 117.671,131.667 118.961 C 131.944 119.497,132.308 119.936,132.476 119.936 C 132.644 119.936,133.008 119.497,133.285 118.961 C 133.950 117.674,134.193 117.895,134.872 120.405 C 135.582 123.027,135.777 123.028,136.484 120.414 C 137.161 117.914,137.431 117.671,138.097 118.961 C 138.375 119.497,138.739 119.936,138.907 119.936 C 139.075 119.936,139.439 119.497,139.716 118.961 C 140.381 117.674,140.623 117.895,141.303 120.405 C 142.013 123.027,142.207 123.028,142.915 120.414 C 143.592 117.914,143.861 117.671,144.528 118.961 C 144.806 119.497,145.170 119.936,145.338 119.936 C 145.505 119.936,145.870 119.497,146.147 118.961 C 146.812 117.674,147.054 117.895,147.734 120.405 C 148.443 123.027,148.638 123.028,149.346 120.414 C 150.023 117.914,150.292 117.671,150.959 118.961 C 151.237 119.497,151.601 119.936,151.768 119.936 C 151.936 119.936,152.300 119.497,152.578 118.961 C 153.243 117.674,153.485 117.895,154.165 120.405 C 154.874 123.027,155.069 123.028,155.777 120.414 C 156.454 117.914,156.723 117.671,157.390 118.961 C 158.025 120.188,158.374 120.188,159.009 118.961 C 159.674 117.674,159.916 117.895,160.595 120.405 C 161.305 123.027,161.500 123.028,162.208 120.414 C 162.884 117.914,163.154 117.671,163.821 118.961 C 164.456 120.188,164.805 120.188,165.440 118.961 C 166.105 117.674,166.347 117.895,167.026 120.405 C 167.736 123.027,167.931 123.028,168.639 120.414 C 169.315 117.914,169.585 117.671,170.252 118.961 C 170.887 120.188,171.235 120.188,171.870 118.961 C 172.535 117.674,172.778 117.895,173.457 120.405 C 174.167 123.027,174.362 123.028,175.069 120.414 C 175.746 117.914,176.016 117.671,176.683 118.961 C 176.960 119.497,177.324 119.936,177.492 119.936 C 177.660 119.936,178.024 119.497,178.301 118.961 C 178.966 117.674,179.209 117.895,179.888 120.405 C 180.598 123.027,180.793 123.028,181.500 120.414 C 182.177 117.914,182.447 117.671,183.114 118.961 C 183.748 120.188,184.097 120.188,184.732 118.961 C 185.397 117.674,185.639 117.895,186.319 120.405 C 187.029 123.027,187.224 123.028,187.931 120.414 C 188.608 117.914,188.878 117.671,189.544 118.961 C 190.179 120.188,190.528 120.188,191.163 118.961 C 191.828 117.674,192.070 117.895,192.750 120.405 C 193.460 123.027,193.654 123.028,194.362 120.414 C 195.039 117.914,195.308 117.671,195.975 118.961 C 196.253 119.497,196.617 119.936,196.785 119.936 C 196.952 119.936,197.317 119.497,197.594 118.961 C 198.259 117.674,198.501 117.895,199.181 120.405 C 199.890 123.027,200.085 123.028,200.793 120.414 C 201.470 117.914,201.739 117.671,202.406 118.961 C 202.683 119.497,203.048 119.936,203.215 119.936 C 203.383 119.936,203.747 119.497,204.025 118.961 C 204.690 117.674,204.932 117.895,205.612 120.405 C 206.321 123.027,206.516 123.028,207.224 120.414 C 207.901 117.914,208.170 117.671,208.837 118.961 C 209.472 120.188,209.821 120.188,210.456 118.961 C 211.121 117.674,211.363 117.895,212.042 120.405 C 212.752 123.027,212.947 123.028,213.655 120.414 C 214.331 117.914,214.601 117.671,215.268 118.961 C 215.903 120.188,216.252 120.188,216.886 118.961 C 217.552 117.674,217.794 117.895,218.473 120.405 C 219.183 123.027,219.378 123.028,220.085 120.414 C 220.762 117.914,221.032 117.671,221.699 118.961 C 221.976 119.497,222.340 119.936,222.508 119.936 C 222.676 119.936,223.040 119.497,223.317 118.961 C 223.982 117.674,224.225 117.895,224.904 120.405 C 225.614 123.027,225.809 123.028,226.516 120.414 C 227.193 117.914,227.463 117.671,228.130 118.961 C 228.765 120.188,229.113 120.188,229.748 118.961 C 230.413 117.674,230.656 117.895,231.335 120.405 C 232.045 123.027,232.240 123.028,232.947 120.414 C 233.624 117.914,233.894 117.671,234.560 118.961 C 235.195 120.188,235.544 120.188,236.179 118.961 C 236.844 117.674,237.086 117.895,237.766 120.405 C 238.476 123.027,238.670 123.028,239.378 120.414 C 240.055 117.914,240.324 117.671,240.991 118.961 C 241.626 120.188,241.975 120.188,242.610 118.961 C 243.275 117.674,243.517 117.895,244.197 120.405 C 244.906 123.027,245.101 123.028,245.809 120.414 C 246.486 117.914,246.755 117.671,247.422 118.961 C 247.700 119.497,248.064 119.936,248.232 119.936 C 248.399 119.936,248.763 119.497,249.041 118.961 C 249.706 117.674,249.948 117.895,250.628 120.405 C 251.337 123.027,251.532 123.028,252.240 120.414 C 252.917 117.914,253.186 117.671,253.853 118.961 C 254.488 120.188,254.837 120.188,255.472 118.961 C 256.137 117.674,256.379 117.895,257.059 120.405 C 257.768 123.027,257.963 123.028,258.671 120.414 C 259.347 117.914,259.617 117.671,260.284 118.961 C 260.919 120.188,261.268 120.188,261.903 118.961 C 262.568 117.674,262.810 117.895,263.489 120.405 C 264.199 123.027,264.394 123.028,265.102 120.414 C 265.778 117.914,266.048 117.671,266.715 118.961 C 267.350 120.188,267.699 120.188,268.333 118.961 C 268.998 117.674,269.241 117.895,269.920 120.405 C 270.630 123.027,270.825 123.028,271.532 120.414 C 272.209 117.914,272.479 117.671,273.146 118.961 C 273.781 120.188,274.129 120.188,274.764 118.961 C 275.429 117.674,275.672 117.895,276.351 120.405 C 277.061 123.027,277.256 123.028,277.963 120.414 C 278.640 117.914,278.910 117.671,279.577 118.961 C 280.211 120.188,280.560 120.188,281.195 118.961 C 281.860 117.674,282.102 117.895,282.782 120.405 C 283.492 123.027,283.687 123.028,284.394 120.414 C 285.071 117.914,285.341 117.671,286.007 118.961 C 286.642 120.188,286.991 120.188,287.626 118.961 C 288.291 117.674,288.533 117.895,289.213 120.405 C 289.923 123.027,290.117 123.028,290.825 120.414 C 291.502 117.914,291.771 117.671,292.438 118.961 C 293.073 120.188,293.422 120.188,294.057 118.961 C 294.722 117.674,294.964 117.895,295.644 120.405 C 296.353 123.027,296.548 123.028,297.256 120.414 C 297.933 117.914,298.202 117.671,298.869 118.961 C 299.504 120.188,299.853 120.188,300.488 118.961 C 301.153 117.674,301.395 117.895,302.075 120.405 C 302.784 123.027,302.979 123.028,303.687 120.414 C 304.364 117.914,304.633 117.671,305.300 118.961 C 305.935 120.188,306.284 120.188,306.919 118.961 C 307.584 117.674,307.826 117.895,308.505 120.405 C 309.215 123.027,309.410 123.028,310.118 120.414 C 310.794 117.914,311.064 117.671,311.731 118.961 C 312.366 120.188,312.715 120.188,313.349 118.961 C 314.015 117.674,314.257 117.895,314.936 120.405 C 315.646 123.027,315.841 123.028,316.548 120.414 C 317.225 117.914,317.495 117.671,318.162 118.961 C 318.797 120.188,319.145 120.188,319.780 118.961 C 320.445 117.674,320.688 117.895,321.367 120.405 C 322.077 123.027,322.272 123.028,322.979 120.414 C 323.656 117.914,323.926 117.671,324.593 118.961 C 324.870 119.497,325.234 119.936,325.402 119.936 C 325.570 119.936,325.934 119.497,326.211 118.961 C 326.876 117.674,327.119 117.895,327.798 120.405 C 328.508 123.027,328.703 123.028,329.410 120.414 C 330.087 117.914,330.357 117.671,331.024 118.961 C 331.658 120.188,332.007 120.188,332.642 118.961 C 333.307 117.674,333.549 117.895,334.229 120.405 C 334.939 123.027,335.134 123.028,335.841 120.414 C 336.518 117.914,336.788 117.671,337.454 118.961 C 338.089 120.188,338.438 120.188,339.073 118.961 C 339.738 117.674,339.980 117.895,340.660 120.405 C 341.369 123.027,341.564 123.028,342.272 120.414 C 342.949 117.914,343.218 117.671,343.885 118.961 C 344.163 119.497,344.527 119.936,344.695 119.936 C 344.862 119.936,345.226 119.497,345.504 118.961 C 346.169 117.674,346.411 117.895,347.091 120.405 C 347.800 123.027,347.995 123.028,348.703 120.414 C 349.380 117.914,349.649 117.671,350.316 118.961 C 350.951 120.188,351.300 120.188,351.935 118.961 C 352.600 117.674,352.842 117.895,353.522 120.405 C 354.231 123.027,354.426 123.028,355.134 120.414 C 355.810 117.914,356.080 117.671,356.747 118.961 C 357.382 120.188,357.731 120.188,358.366 118.961 C 359.031 117.674,359.273 117.895,359.952 120.405 C 360.662 123.027,360.857 123.028,361.565 120.414 C 362.241 117.914,362.511 117.671,363.178 118.961 C 363.813 120.188,364.162 120.188,364.796 118.961 C 365.461 117.674,365.704 117.895,366.383 120.405 C 367.093 123.027,367.288 123.028,367.995 120.414 C 368.672 117.914,368.942 117.671,369.609 118.961 C 370.244 120.188,370.592 120.188,371.227 118.961 C 371.892 117.674,372.135 117.895,372.814 120.405 C 373.524 123.027,373.719 123.028,374.426 120.414 C 375.103 117.914,375.373 117.671,376.040 118.961 C 376.674 120.188,377.023 120.188,377.658 118.961 C 378.323 117.674,378.566 117.895,379.245 120.405 C 379.955 123.027,380.150 123.028,380.857 120.414 C 381.534 117.914,381.804 117.671,382.470 118.961 C 383.105 120.188,383.454 120.188,384.089 118.961 C 384.754 117.674,384.996 117.895,385.676 120.405 C 386.386 123.027,386.580 123.028,387.288 120.414 C 387.965 117.914,388.234 117.671,388.901 118.961 C 389.536 120.188,389.885 120.188,390.520 118.961 C 391.185 117.674,391.427 117.895,392.107 120.405 C 392.827 123.066,392.962 123.041,393.833 120.082 C 394.449 117.987,394.699 117.566,395.665 116.995 C 397.036 116.187,397.059 115.914,395.809 115.268 C 394.523 114.603,394.744 114.361,397.254 113.681 C 399.876 112.971,399.877 112.776,397.263 112.069 C 394.763 111.392,394.520 111.122,395.809 110.456 C 397.037 109.821,397.037 109.472,395.809 108.837 C 394.523 108.172,394.744 107.930,397.254 107.250 C 399.876 106.540,399.877 106.346,397.263 105.638 C 394.763 104.961,394.520 104.692,395.809 104.025 C 396.346 103.747,396.785 103.383,396.785 103.215 C 396.785 103.048,396.346 102.683,395.809 102.406 C 394.523 101.741,394.744 101.499,397.254 100.819 C 399.876 100.110,399.877 99.915,397.263 99.207 C 394.763 98.530,394.520 98.261,395.809 97.594 C 396.346 97.317,396.785 96.952,396.785 96.785 C 396.785 96.617,396.346 96.253,395.809 95.975 C 394.523 95.310,394.744 95.068,397.254 94.388 C 399.876 93.679,399.877 93.484,397.263 92.776 C 394.763 92.099,394.520 91.830,395.809 91.163 C 397.037 90.528,397.037 90.179,395.809 89.544 C 394.523 88.879,394.744 88.637,397.254 87.958 C 399.876 87.248,399.877 87.053,397.263 86.345 C 394.763 85.669,394.520 85.399,395.809 84.732 C 397.037 84.097,397.037 83.748,395.809 83.114 C 394.523 82.448,394.744 82.206,397.254 81.527 C 399.876 80.817,399.877 80.622,397.263 79.915 C 394.763 79.238,394.520 78.968,395.809 78.301 C 396.346 78.024,396.785 77.660,396.785 77.492 C 396.785 77.324,396.346 76.960,395.809 76.683 C 394.523 76.018,394.744 75.775,397.254 75.096 C 399.876 74.386,399.877 74.191,397.263 73.484 C 394.763 72.807,394.520 72.537,395.809 71.870 C 397.037 71.235,397.037 70.887,395.809 70.252 C 394.523 69.587,394.744 69.344,397.254 68.665 C 399.876 67.955,399.877 67.760,397.263 67.053 C 394.763 66.376,394.520 66.106,395.809 65.440 C 396.346 65.162,396.785 64.798,396.785 64.630 C 396.785 64.462,396.346 64.098,395.809 63.821 C 394.523 63.156,394.744 62.914,397.254 62.234 C 399.876 61.524,399.877 61.330,397.263 60.622 C 394.763 59.945,394.520 59.676,395.809 59.009 C 397.037 58.374,397.037 58.025,395.809 57.390 C 394.523 56.725,394.744 56.483,397.254 55.803 C 399.876 55.094,399.877 54.899,397.263 54.191 C 394.763 53.514,394.520 53.245,395.809 52.578 C 396.346 52.300,396.785 51.936,396.785 51.768 C 396.785 51.601,396.346 51.237,395.809 50.959 C 394.523 50.294,394.744 50.052,397.254 49.372 C 399.876 48.663,399.877 48.468,397.263 47.760 C 394.763 47.083,394.520 46.814,395.809 46.147 C 396.346 45.870,396.785 45.505,396.785 45.338 C 396.785 45.170,396.346 44.806,395.809 44.528 C 394.523 43.863,394.744 43.621,397.254 42.941 C 399.876 42.232,399.877 42.037,397.263 41.329 C 394.763 40.653,394.520 40.383,395.809 39.716 C 396.346 39.439,396.785 39.075,396.785 38.907 C 396.785 38.739,396.346 38.375,395.809 38.097 C 394.523 37.432,394.744 37.190,397.254 36.511 C 399.876 35.801,399.877 35.606,397.263 34.898 C 394.763 34.222,394.520 33.952,395.809 33.285 C 397.037 32.650,397.037 32.301,395.809 31.667 C 394.523 31.002,394.744 30.759,397.254 30.080 C 399.876 29.370,399.877 29.175,397.263 28.468 C 394.763 27.791,394.520 27.521,395.809 26.854 C 396.346 26.577,396.785 26.213,396.785 26.045 C 396.785 25.877,396.346 25.513,395.809 25.236 C 394.523 24.571,394.744 24.328,397.254 23.649 C 399.876 22.939,399.877 22.744,397.263 22.037 C 394.763 21.360,394.520 21.090,395.809 20.423 C 396.346 20.146,396.785 19.782,396.785 19.614 C 396.785 19.446,396.346 19.082,395.809 18.805 C 394.523 18.140,394.744 17.898,397.254 17.218 C 399.876 16.508,399.877 16.313,397.263 15.606 C 394.763 14.929,394.520 14.659,395.809 13.993 C 397.037 13.358,397.037 13.009,395.809 12.374 C 394.523 11.709,394.744 11.467,397.254 10.787 C 399.876 10.077,399.877 9.883,397.263 9.175 C 394.755 8.496,394.519 8.229,395.830 7.551 C 397.016 6.938,396.975 6.705,395.508 5.721 C 394.591 5.105,394.283 4.588,393.774 2.807 C 393.007 0.125,392.842 0.118,392.133 2.737 C 391.456 5.237,391.187 5.480,390.520 4.191 C 389.885 2.963,389.536 2.963,388.901 4.191 C 388.236 5.477,387.994 5.256,387.314 2.746 C 386.605 0.124,386.410 0.123,385.702 2.737 C 385.026 5.237,384.756 5.480,384.089 4.191 C 383.454 2.963,383.105 2.963,382.470 4.191 C 381.805 5.477,381.563 5.256,380.884 2.746 C 380.174 0.124,379.979 0.123,379.271 2.737 C 378.595 5.237,378.325 5.480,377.658 4.191 C 377.023 2.963,376.674 2.963,376.040 4.191 C 375.375 5.477,375.132 5.256,374.453 2.746 C 373.743 0.124,373.548 0.123,372.841 2.737 C 372.164 5.237,371.894 5.480,371.227 4.191 C 370.592 2.963,370.244 2.963,369.609 4.191 C 368.944 5.477,368.701 5.256,368.022 2.746 C 367.312 0.124,367.117 0.123,366.410 2.737 C 365.733 5.237,365.463 5.480,364.796 4.191 C 364.162 2.963,363.813 2.963,363.178 4.191 C 362.513 5.477,362.271 5.256,361.591 2.746 C 360.881 0.124,360.686 0.123,359.979 2.737 C 359.302 5.237,359.032 5.480,358.366 4.191 C 357.731 2.963,357.382 2.963,356.747 4.191 C 356.082 5.477,355.840 5.256,355.160 2.746 C 354.450 0.124,354.256 0.123,353.548 2.737 C 352.871 5.237,352.602 5.480,351.935 4.191 C 351.300 2.963,350.951 2.963,350.316 4.191 C 349.651 5.477,349.409 5.256,348.729 2.746 C 348.020 0.124,347.825 0.123,347.117 2.737 C 346.440 5.237,346.171 5.480,345.504 4.191 C 344.869 2.963,344.520 2.963,343.885 4.191 C 343.220 5.477,342.978 5.256,342.298 2.746 C 341.589 0.124,341.394 0.123,340.686 2.737 C 340.009 5.237,339.740 5.480,339.073 4.191 C 338.438 2.963,338.089 2.963,337.454 4.191 C 336.789 5.477,336.547 5.256,335.868 2.746 C 335.158 0.124,334.963 0.123,334.255 2.737 C 333.579 5.237,333.309 5.480,332.642 4.191 C 332.007 2.963,331.658 2.963,331.024 4.191 C 330.358 5.477,330.116 5.256,329.437 2.746 C 328.727 0.124,328.532 0.123,327.825 2.737 C 327.148 5.237,326.878 5.480,326.211 4.191 C 325.576 2.963,325.228 2.963,324.593 4.191 C 323.928 5.477,323.685 5.256,323.006 2.746 C 322.296 0.124,322.101 0.123,321.394 2.737 C 320.717 5.237,320.447 5.480,319.780 4.191 C 319.145 2.963,318.797 2.963,318.162 4.191 C 317.497 5.477,317.254 5.256,316.575 2.746 C 315.865 0.124,315.670 0.123,314.963 2.737 C 314.286 5.237,314.016 5.480,313.349 4.191 C 312.715 2.963,312.366 2.963,311.731 4.191 C 311.066 5.477,310.824 5.256,310.144 2.746 C 309.434 0.124,309.239 0.123,308.532 2.737 C 307.855 5.237,307.585 5.480,306.919 4.191 C 306.284 2.963,305.935 2.963,305.300 4.191 C 304.635 5.477,304.393 5.256,303.713 2.746 C 303.003 0.124,302.809 0.123,302.101 2.737 C 301.424 5.237,301.155 5.480,300.488 4.191 C 299.853 2.963,299.504 2.963,298.869 4.191 C 298.204 5.477,297.962 5.256,297.282 2.746 C 296.573 0.124,296.378 0.123,295.670 2.737 C 294.993 5.237,294.724 5.480,294.057 4.191 C 293.422 2.963,293.073 2.963,292.438 4.191 C 291.773 5.477,291.531 5.256,290.851 2.746 C 290.142 0.124,289.947 0.123,289.239 2.737 C 288.562 5.237,288.293 5.480,287.626 4.191 C 286.991 2.963,286.642 2.963,286.007 4.191 C 285.342 5.477,285.100 5.256,284.421 2.746 C 283.711 0.124,283.516 0.123,282.808 2.737 C 282.132 5.237,281.862 5.480,281.195 4.191 C 280.560 2.963,280.211 2.963,279.577 4.191 C 278.912 5.477,278.669 5.256,277.990 2.746 C 277.280 0.124,277.085 0.123,276.378 2.737 C 275.701 5.237,275.431 5.480,274.764 4.191 C 274.129 2.963,273.781 2.963,273.146 4.191 C 272.481 5.477,272.238 5.256,271.559 2.746 C 270.849 0.124,270.654 0.123,269.947 2.737 C 269.270 5.237,269.000 5.480,268.333 4.191 C 267.699 2.963,267.350 2.963,266.715 4.191 C 266.050 5.477,265.807 5.256,265.128 2.746 C 264.418 0.124,264.223 0.123,263.516 2.737 C 262.839 5.237,262.569 5.480,261.903 4.191 C 261.268 2.963,260.919 2.963,260.284 4.191 C 259.619 5.477,259.377 5.256,258.697 2.746 C 257.987 0.124,257.793 0.123,257.085 2.737 C 256.408 5.237,256.139 5.480,255.472 4.191 C 254.837 2.963,254.488 2.963,253.853 4.191 C 253.188 5.477,252.946 5.256,252.266 2.746 C 251.557 0.124,251.362 0.123,250.654 2.737 C 249.977 5.237,249.708 5.480,249.041 4.191 C 248.406 2.963,248.057 2.963,247.422 4.191 C 246.757 5.477,246.515 5.256,245.835 2.746 C 245.126 0.124,244.931 0.123,244.223 2.737 C 243.546 5.237,243.277 5.480,242.610 4.191 C 241.975 2.963,241.626 2.963,240.991 4.191 C 240.326 5.477,240.084 5.256,239.405 2.746 C 238.695 0.124,238.500 0.123,237.792 2.737 C 237.116 5.237,236.846 5.480,236.179 4.191 C 235.544 2.963,235.195 2.963,234.560 4.191 C 233.895 5.477,233.653 5.256,232.974 2.746 C 232.264 0.124,232.069 0.123,231.361 2.737 C 230.685 5.237,230.415 5.480,229.748 4.191 C 229.113 2.963,228.765 2.963,228.130 4.191 C 227.465 5.477,227.222 5.256,226.543 2.746 C 225.833 0.124,225.638 0.123,224.931 2.737 C 224.254 5.237,223.984 5.480,223.317 4.191 C 222.682 2.963,222.334 2.963,221.699 4.191 C 221.034 5.477,220.791 5.256,220.112 2.746 C 219.402 0.124,219.207 0.123,218.500 2.737 C 217.823 5.237,217.553 5.480,216.886 4.191 C 216.252 2.963,215.903 2.963,215.268 4.191 C 214.603 5.477,214.361 5.256,213.681 2.746 C 212.971 0.124,212.776 0.123,212.069 2.737 C 211.392 5.237,211.122 5.480,210.456 4.191 C 209.821 2.963,209.472 2.963,208.837 4.191 C 208.172 5.477,207.930 5.256,207.250 2.746 C 206.540 0.124,206.346 0.123,205.638 2.737 C 204.961 5.237,204.692 5.480,204.025 4.191 C 203.390 2.963,203.041 2.963,202.406 4.191 C 201.741 5.477,201.499 5.256,200.819 2.746 C 200.110 0.124,199.915 0.123,199.207 2.737 C 198.530 5.237,198.261 5.480,197.594 4.191 C 196.959 2.963,196.610 2.963,195.975 4.191 C 195.310 5.477,195.068 5.256,194.388 2.746 C 193.679 0.124,193.484 0.123,192.776 2.737 C 192.099 5.237,191.830 5.480,191.163 4.191 C 190.528 2.963,190.179 2.963,189.544 4.191 C 188.879 5.477,188.637 5.256,187.958 2.746 C 187.248 0.124,187.053 0.123,186.345 2.737 C 185.669 5.237,185.399 5.480,184.732 4.191 C 184.097 2.963,183.748 2.963,183.114 4.191 C 182.448 5.477,182.206 5.256,181.527 2.746 C 180.817 0.124,180.622 0.123,179.915 2.737 C 179.238 5.237,178.968 5.480,178.301 4.191 C 178.024 3.654,177.660 3.215,177.492 3.215 C 177.324 3.215,176.960 3.654,176.683 4.191 C 176.018 5.477,175.775 5.256,175.096 2.746 C 174.386 0.124,174.191 0.123,173.484 2.737 C 172.807 5.237,172.537 5.480,171.870 4.191 C 171.235 2.963,170.887 2.963,170.252 4.191 C 169.587 5.477,169.344 5.256,168.665 2.746 C 167.955 0.124,167.760 0.123,167.053 2.737 C 166.376 5.237,166.106 5.480,165.440 4.191 C 164.805 2.963,164.456 2.963,163.821 4.191 C 163.156 5.477,162.914 5.256,162.234 2.746 C 161.524 0.124,161.330 0.123,160.622 2.737 C 159.945 5.237,159.676 5.480,159.009 4.191 C 158.374 2.963,158.025 2.963,157.390 4.191 C 156.725 5.477,156.483 5.256,155.803 2.746 C 155.094 0.124,154.899 0.123,154.191 2.737 C 153.514 5.237,153.245 5.480,152.578 4.191 C 151.943 2.963,151.594 2.963,150.959 4.191 C 150.294 5.477,150.052 5.256,149.372 2.746 C 148.663 0.124,148.468 0.123,147.760 2.737 C 147.083 5.237,146.814 5.480,146.147 4.191 C 145.512 2.963,145.163 2.963,144.528 4.191 C 143.863 5.477,143.621 5.256,142.941 2.746 C 142.232 0.124,142.037 0.123,141.329 2.737 C 140.653 5.237,140.383 5.480,139.716 4.191 C 139.081 2.963,138.732 2.963,138.097 4.191 C 137.432 5.477,137.190 5.256,136.511 2.746 C 135.801 0.124,135.606 0.123,134.898 2.737 C 134.222 5.237,133.952 5.480,133.285 4.191 C 132.650 2.963,132.301 2.963,131.667 4.191 C 131.002 5.477,130.759 5.256,130.080 2.746 C 129.370 0.124,129.175 0.123,128.468 2.737 C 127.791 5.237,127.521 5.480,126.854 4.191 C 126.577 3.654,126.213 3.215,126.045 3.215 C 125.877 3.215,125.513 3.654,125.236 4.191 C 124.571 5.477,124.328 5.256,123.649 2.746 C 122.939 0.124,122.744 0.123,122.037 2.737 C 121.360 5.237,121.090 5.480,120.423 4.191 C 119.789 2.963,119.440 2.963,118.805 4.191 C 118.140 5.477,117.898 5.256,117.218 2.746 C 116.508 0.124,116.313 0.123,115.606 2.737 C 114.929 5.237,114.659 5.480,113.993 4.191 C 113.358 2.963,113.009 2.963,112.374 4.191 C 111.709 5.477,111.467 5.256,110.787 2.746 C 110.077 0.124,109.883 0.123,109.175 2.737 C 108.498 5.237,108.229 5.480,107.562 4.191 C 106.927 2.963,106.578 2.963,105.943 4.191 C 105.278 5.477,105.036 5.256,104.356 2.746 C 103.647 0.124,103.452 0.123,102.744 2.737 C 102.067 5.237,101.798 5.480,101.131 4.191 C 100.496 2.963,100.147 2.963,99.512 4.191 C 98.847 5.477,98.605 5.256,97.925 2.746 C 97.216 0.124,97.021 0.123,96.313 2.737 C 95.636 5.237,95.367 5.480,94.700 4.191 C 94.065 2.963,93.716 2.963,93.081 4.191 C 92.416 5.477,92.174 5.256,91.495 2.746 C 90.785 0.124,90.590 0.123,89.882 2.737 C 89.206 5.237,88.936 5.480,88.269 4.191 C 87.634 2.963,87.285 2.963,86.651 4.191 C 85.985 5.477,85.743 5.256,85.064 2.746 C 84.354 0.124,84.159 0.123,83.452 2.737 C 82.775 5.237,82.505 5.480,81.838 4.191 C 81.203 2.963,80.855 2.963,80.220 4.191 C 79.555 5.477,79.312 5.256,78.633 2.746 C 77.923 0.124,77.728 0.123,77.021 2.737 C 76.344 5.237,76.074 5.480,75.407 4.191 C 74.772 2.963,74.424 2.963,73.789 4.191 C 73.124 5.477,72.881 5.256,72.202 2.746 C 71.492 0.124,71.297 0.123,70.590 2.737 C 69.913 5.237,69.643 5.480,68.976 4.191 C 68.342 2.963,67.993 2.963,67.358 4.191 C 66.693 5.477,66.451 5.256,65.771 2.746 C 65.061 0.124,64.866 0.123,64.159 2.737 C 63.482 5.237,63.212 5.480,62.546 4.191 C 61.911 2.963,61.562 2.963,60.927 4.191 C 60.262 5.477,60.020 5.256,59.340 2.746 C 58.631 0.124,58.436 0.123,57.728 2.737 C 57.051 5.237,56.782 5.480,56.115 4.191 C 55.480 2.963,55.131 2.963,54.496 4.191 C 53.831 5.477,53.589 5.256,52.909 2.746 C 52.200 0.124,52.005 0.123,51.297 2.737 C 50.620 5.237,50.351 5.480,49.684 4.191 C 49.049 2.963,48.700 2.963,48.065 4.191 C 47.400 5.477,47.158 5.256,46.478 2.746 C 45.769 0.124,45.574 0.123,44.866 2.737 C 44.190 5.237,43.920 5.480,43.253 4.191 C 42.976 3.654,42.611 3.215,42.444 3.215 C 42.276 3.215,41.912 3.654,41.634 4.191 C 40.969 5.477,40.727 5.256,40.048 2.746 C 39.338 0.124,39.143 0.123,38.435 2.737 C 37.759 5.237,37.489 5.480,36.822 4.191 C 36.187 2.963,35.838 2.963,35.204 4.191 C 34.539 5.477,34.296 5.256,33.617 2.746 C 32.907 0.124,32.712 0.123,32.005 2.737 C 31.328 5.237,31.058 5.480,30.391 4.191 C 29.756 2.963,29.408 2.963,28.773 4.191 C 28.108 5.477,27.865 5.256,27.186 2.746 C 26.476 0.124,26.281 0.123,25.574 2.737 C 24.897 5.237,24.627 5.480,23.960 4.191 C 23.326 2.963,22.977 2.963,22.342 4.191 C 21.677 5.477,21.434 5.256,20.755 2.746 C 20.045 0.124,19.850 0.123,19.143 2.737 C 18.466 5.237,18.196 5.480,17.530 4.191 C 17.252 3.654,16.888 3.215,16.720 3.215 C 16.552 3.215,16.188 3.654,15.911 4.191 C 15.246 5.477,15.004 5.256,14.324 2.746 C 13.614 0.124,13.420 0.123,12.712 2.737 C 12.035 5.237,11.766 5.480,11.099 4.191 C 10.464 2.963,10.115 2.963,9.480 4.191 C 8.815 5.477,8.573 5.256,7.893 2.746 C 7.173 0.085,7.038 0.111,6.167 3.069 M394.534 61.576 L 394.534 117.685 200.000 117.685 L 5.466 117.685 5.466 61.576 L 5.466 5.466 200.000 5.466 L 394.534 5.466 394.534 61.576 M6.431 61.576 L 6.431 116.720 200.000 116.720 L 393.569 116.720 393.569 61.576 L 393.569 6.431 200.000 6.431 L 6.431 6.431 6.431 61.576 " stroke="none" fill="#000000" fill-rule="evenodd"></path></g></svg>